<svg width="47" height="56" viewBox="0 0 47 56" fill="none" xmlns="http://www.w3.org/2000/svg">
  <path d="M34.5343 1.11595C34.5343 3.90594 33.5355 6.51079 31.5445 8.92169C29.1419 11.7881 26.2358 13.4443 23.0844 13.183C23.0442 12.8483 23.021 12.4961 23.021 12.1258C23.021 9.44762 24.1636 6.58124 26.1926 4.23772C27.2056 3.05111 28.494 2.06459 30.0564 1.27754C31.6154 0.502169 33.09 0.0733183 34.477 2.99824e-10C34.495 0.165888 34.5083 0.331776 34.5175 0.497254C34.5291 0.704102 34.5343 0.91054 34.5343 1.11595Z" fill="oklch(92.5% 0.084 155.995)" />
  <path d="M45.0829 43.4728C44.2562 45.4217 43.2776 47.2158 42.1437 48.865C40.5982 51.1137 39.3328 52.67 38.3576 53.5342C36.8458 54.9529 35.2261 55.6795 33.4916 55.7209C32.2464 55.7209 30.7448 55.3592 28.9968 54.6258C27.2431 53.8959 25.6315 53.5342 24.1578 53.5342C22.6123 53.5342 20.9548 53.8959 19.1818 54.6258C17.4062 55.3592 15.9757 55.7416 14.8821 55.7795C13.2188 55.8518 11.5609 55.1044 9.9061 53.5342C8.84988 52.5942 7.52877 50.9828 5.94616 48.6997C4.24812 46.262 2.8521 43.435 1.75843 40.212C0.587155 36.7306 2.88969e-10 33.3596 2.60698e-10 30.0959C2.28315e-10 26.3575 0.791648 23.1332 2.37732 20.4312C3.6235 18.2608 5.28138 16.5488 7.35635 15.292C9.43131 14.0351 11.6733 13.3947 14.0877 13.3538C15.4088 13.3538 17.1413 13.7707 19.2942 14.5901C21.441 15.4124 22.8195 15.8294 23.4239 15.8294C23.8757 15.8294 25.4071 15.342 28.003 14.3698C30.458 13.4685 32.5299 13.0951 34.2272 13.2421C38.8266 13.6208 42.2821 15.471 44.5801 18.8043C40.4666 21.3475 38.4318 24.9096 38.4723 29.4793C38.5094 33.0387 39.7749 36.0007 42.2618 38.3524C43.3889 39.444 44.6476 40.2876 46.048 40.8868C45.7443 41.7855 45.4237 42.6465 45.0829 43.4728Z" fill="oklch(92.5% 0.084 155.995)" />
  <defs>
    <linearGradient id="paint0_linear_22932_109" x1="23.024" y1="2.00223e-10" x2="23.024" y2="55.7842" gradientUnits="userSpaceOnUse">
      <stop stop-color="#BFD6EA" />
      <stop offset="1" stop-color="#9FB6CD" />
    </linearGradient>
    <linearGradient id="paint1_linear_22932_109" x1="23.024" y1="2.00223e-10" x2="23.024" y2="55.7842" gradientUnits="userSpaceOnUse">
      <stop stop-color="#BFD6EA" />
      <stop offset="1" stop-color="#9FB6CD" />
    </linearGradient>
  </defs>
</svg>